<svg xmlns="http://www.w3.org/2000/svg" viewBox="0 0 236 50"><g id="Logo_Desktop" data-name="Logo Desktop"><path id="casino" d="M93.86,9.61h9.32l-.27,1.87H95.46l-.83,5.59h7.46l-.27,1.86H92.49Zm17.41,9.32.27-1.86h1.81l-1.12-4.66-3.49,6.52h-2.13l5.09-9.32h1.86l2.37,9.32Zm20-7.45H123.8l-.27,1.86H131l-.81,5.59h-9.33l.28-1.86h7.45l.27-1.87h-7.45l.82-5.59h9.32Zm8.13-1.87L138,18.93h-1.86l1.36-9.32Zm4.48,9.32,1.37-9.32h1.86l4.62,6.61,1-6.61h1.87l-1.37,9.32h-1.87l-4.65-6.41-.94,6.41Zm15,0,1.37-9.32h9.31l-1.36,9.32Zm7.73-1.86.81-5.59h-5.59l-.81,5.59Z" style="fill:#fff"/><path id="superlines" d="M89.41,40l.47-3.35H99.94l.48-3.36H90.36l1.41-10.07h13.42l-.47,3.35H94.65l-.48,3.36h10.06L102.83,40Zm18-16.78h3.36l-1.89,13.43h6.7l1.89-13.43h3.36L118.49,40H105.07Zm29.08,0-1.43,10.07H125L124.07,40h-3.35l2.36-16.78Zm-3.83,3.35H126l-.48,3.36h6.71Zm7.52,10.08h10.07L149.78,40H136.37l2.36-16.78h13.42l-.48,3.35H141.61l-.48,3.36H151.2l-.47,3.36H140.67ZM167.8,23.22l-1.42,10.07h-3.87L165.44,40h-3.88l-2.94-6.71h-2.3L155.38,40H152l2.35-16.78ZM164,26.57h-6.71l-.48,3.36h6.71Zm7.52,10.08h10.06L181.09,40H167.68L170,23.22h3.35Zm14.19-13.43H189L186.69,40h-3.35Zm8.48,3.35L192.28,40h-3.36l2.35-16.78h13.42L202.34,40H199l1.9-13.43ZM208.4,36.65h10.06L218,40H204.57l2.36-16.78h13.42l-.47,3.35H209.82l-.49,3.36h10.06l-.46,3.36H208.87ZM220.23,40l.46-3.35h10.06l.48-3.36H221.16l1.42-10.07H236l-.47,3.35H225.46L225,29.93h10.06L233.65,40Z" style="fill:#fff"/><path d="M77.37,31.43,80,30.12,67.91,7.28l-12.4,4.39L40,0,24.51,11.68,12.09,7.28,0,30.12,1.67,31l3.84,1.91h0L40,50,74.48,32.86h0ZM21.3,17.24l4.25-3.51L37,18.22l-11.29,4Zm.5,6.38L7.44,28.7l11.38-9.41ZM40,19.38l12.46,4.87L40,38.22l-12.45-14Zm3-1.16,11.51-4.5,4.24,3.51-4.45,5Zm18.21,1.06L72.56,28.7,58.2,23.62Zm13.73,7L62.7,17.08l4.92-7.17ZM65.8,9.3l-5.4,6L57,12.75ZM40,1.75l13,10.79L40,17.17,27,12.55Zm-17,11-3.45,2.6L14.22,9.3ZM12.38,9.91l4.93,7.18L5.09,26.29Zm11,16L34.22,41.7,10.09,31.08ZM45.75,41.74,56.64,25.89l13.28,5.19Z" style="fill:#fff;fill-rule:evenodd"/></g></svg>