<?xml version="1.0" encoding="UTF-8"?>
<svg width="35" height="35" xmlns="http://www.w3.org/2000/svg" viewBox="0 0 35 35">
    <g id="_18_Plus" data-name="18_Plus">
        <g id="Logo">
            <path d="M11.1,23.46V14H8.9V11.49h5.22V23.42Zm14.43-8.85A2.74,2.74,0,0,1,24,17.06a3.25,3.25,0,0,1,2.14,3c0,2.15-1.93,3.51-4.91,3.51s-4.91-1.36-4.91-3.47a3.31,3.31,0,0,1,2.28-3.07A3,3,0,0,1,17,14.52c0-1.93,1.67-3.12,4.26-3.12S25.53,12.68,25.53,14.61Zm-6.32,5.26c0,1,.7,1.58,2,1.58s2.06-.53,2.06-1.58-.75-1.54-2.06-1.54S19.21,18.86,19.21,19.87Zm.31-5.09c0,.83.61,1.32,1.71,1.32s1.71-.49,1.71-1.32-.62-1.36-1.71-1.36S19.52,13.9,19.52,14.78Z" style="fill:#eaeaea"/>
            <path d="M31.18,12.89a14.8,14.8,0,0,1,.75,4.65A14.43,14.43,0,1,1,17.5,3.07a14.94,14.94,0,0,1,4.65.75V.61A18.48,18.48,0,0,0,17.5,0,17.5,17.5,0,1,0,35,17.5a18.78,18.78,0,0,0-.61-4.65S31.18,12.89,31.18,12.89Z" style="fill:#eaeaea"/>
            <path d="M30.31,4.69V1.36H27.89V4.69H24.56V7.11h3.33v3.37h2.42V7.11h3.37V4.69Z" style="fill:#eaeaea"/>
        </g>
    </g>
</svg>