<?xml version="1.0" encoding="UTF-8"?>
<svg width="151" height="35" xmlns="http://www.w3.org/2000/svg" viewBox="0 0 151 35">
    <g id="License_-_GamingTherapy_SVG_" data-name="License - GamingTherapy (SVG)">
        <path d="M0,18.41V12.57c0-3.69,1.24-6,5.21-6S10.3,8.6,10.3,11.63v1.11H6.54V11.32c0-1.09-.08-2.08-1.28-2.08s-1.33,1.14-1.33,2.19v8.06c0,1.18.25,2.21,1.43,2.21s1.51-1.07,1.51-2.26v-2H5.3V15.15h5v9H7.79l-.22-1.44a2.82,2.82,0,0,1-2.81,1.7C1.16,24.43,0,22,0,18.41Z" style="fill:#e6e6e6"/>
        <path d="M12.21,21.36c0-3.1,2.77-4.06,5.1-4.88V15.23c0-.64-.15-1.09-.73-1.09s-.75.43-.77,1l-.08.9-3.26-.13c.12-3,1.54-4.36,4.44-4.36a3.43,3.43,0,0,1,3.75,3.74v5.8a17.24,17.24,0,0,0,.22,3.09H17.74c-.08-.67-.23-1.61-.28-1.76a2.48,2.48,0,0,1-2.38,2A2.88,2.88,0,0,1,12.21,21.36Zm5.1,0V18c-1.15.67-1.95,1.42-1.95,2.67,0,.84.37,1.35,1,1.35A1.26,1.26,0,0,0,17.31,21.4Z" style="fill:#e6e6e6"/>
        <path d="M22.74,11.75h3.43v1a4.08,4.08,0,0,1,2.94-1.22A2.18,2.18,0,0,1,31.24,13a4,4,0,0,1,3.15-1.48c1.46,0,2.4,1.12,2.4,3v9.64H33.36V14.89c0-.69-.23-1-.73-1a2.3,2.3,0,0,0-1.16.46v9.79H28.08V14.89c0-.69-.25-1-.75-1a2.3,2.3,0,0,0-1.16.46v9.79H22.74Z" style="fill:#e6e6e6"/>
        <path d="M42.39,23.22v1H38.9V6.77h3.49v5.89a4.15,4.15,0,0,1,2.71-1.12c1.89,0,2.66,1.63,2.66,3.65v5.35c0,2.32-.95,3.84-2.7,3.84A4.19,4.19,0,0,1,42.39,23.22Zm1.87-2.49v-5.8c0-.71-.23-1.29-.86-1.29a1.7,1.7,0,0,0-1,.41v7.74a1.78,1.78,0,0,0,1,.34C44,22.13,44.26,21.51,44.26,20.73Z" style="fill:#e6e6e6"/>
        <path d="M49.9,6.77h3.48v17.4H49.9Z" style="fill:#e6e6e6"/>
        <path d="M55.63,7.22h3.52V9.65H55.63Zm0,4.53h3.5V24.17h-3.5Z" style="fill:#e6e6e6"/>
        <path d="M61.32,11.75h3.5V13a4.25,4.25,0,0,1,3-1.46c1.52,0,2.29,1.25,2.29,2.9v9.73H66.62V14.93c0-.6-.17-.92-.71-.92a2.18,2.18,0,0,0-1.09.45v9.71h-3.5Z" style="fill:#e6e6e6"/>
        <path d="M71.64,25.93a2.77,2.77,0,0,1,1.93-2.47,2,2,0,0,1-1.72-2,3.12,3.12,0,0,1,1.38-2.4A4,4,0,0,1,72,15.86c0-2.8,1.59-4.32,4.44-4.32a4.07,4.07,0,0,1,2.94,1,3.57,3.57,0,0,1,1.5-1.29l.46-.22.81,1.68a15.84,15.84,0,0,0-1.93.88,5.51,5.51,0,0,1,.49,2.32c0,2.68-1.43,4.27-4.27,4.27a6.5,6.5,0,0,1-2.12-.34,1.32,1.32,0,0,0-.32.75c0,.34.3.54,1.18.65l3.26.36c2.12.24,3.09,1.42,3.09,3.24,0,2.39-1.48,3.65-5.3,3.65C73.44,28.46,71.64,27.65,71.64,25.93Zm7.49-1c0-.6-.43-.81-1.87-1L75,23.74a1.49,1.49,0,0,0-.73,1.16c0,.69.67,1,2.45,1C78.25,25.93,79.13,25.74,79.13,24.94Zm-1.72-9.08c0-1.64-.17-2.24-1-2.24s-1,.58-1,2.24.17,2.21,1,2.21S77.41,17.49,77.41,15.86Z" style="fill:#e6e6e6"/>
        <path d="M84.7,9.63H82.09V6.77h9.07V9.63H88.57V24.17H84.7Z" style="fill:#e6e6e6"/><path d="M92.51,6.77H96v6.08A4.11,4.11,0,0,1,99,11.54c1.48,0,2.27,1.25,2.27,2.9v9.73H97.83V14.93c0-.6-.17-.92-.7-.92a2.35,2.35,0,0,0-1.14.45v9.71H92.51Z" style="fill:#e6e6e6"/>
        <path d="M103.16,20.24V15.69c0-2.67,1.63-4.15,4.31-4.15s4.12,1.44,4.12,4.15v2.49h-5v2.38c0,1,.34,1.33.86,1.33s.9-.3.9-1.2V19.38h3.22v1.2c0,2.52-1.55,3.8-4.12,3.8S103.16,22.88,103.16,20.24Zm5.21-3.7V15.3c0-1-.39-1.27-.92-1.27s-.84.32-.84,1.46v1Z" style="fill:#e6e6e6"/>
        <path d="M113.54,11.75H117v2.07c.79-1.42,1.5-2.22,2.66-2.22a2,2,0,0,1,.53.07v3.48a3,3,0,0,0-1.13-.26,2.61,2.61,0,0,0-2.06,1.2v8.08h-3.5Z" style="fill:#e6e6e6"/><path d="M121.33,21.36c0-3.1,2.77-4.06,5.1-4.88V15.23c0-.64-.15-1.09-.73-1.09s-.75.43-.77,1l-.08.9-3.26-.13c.12-3,1.54-4.36,4.44-4.36a3.43,3.43,0,0,1,3.75,3.74v5.8a17.24,17.24,0,0,0,.22,3.09h-3.14c-.08-.67-.23-1.61-.28-1.76a2.48,2.48,0,0,1-2.38,2A2.88,2.88,0,0,1,121.33,21.36Zm5.1,0V18c-1.15.67-2,1.42-2,2.67,0,.84.37,1.35,1,1.35A1.26,1.26,0,0,0,126.43,21.4Z" style="fill:#e6e6e6"/>
        <path d="M131.86,11.75h3.5v.91A4.08,4.08,0,0,1,138,11.54c1.89,0,2.66,1.63,2.66,3.65v5.35c0,2.32-.94,3.84-2.7,3.84a4.16,4.16,0,0,1-2.64-1.16v5h-3.5Zm5.34,9v-5.8c0-.71-.25-1.29-.85-1.29a1.51,1.51,0,0,0-1,.43v7.74a1.73,1.73,0,0,0,.92.32C137,22.13,137.2,21.51,137.2,20.73Z" style="fill:#e6e6e6"/>
        <path d="M143,25.35c1.31,0,2-.21,2-1.05a9.54,9.54,0,0,0-.45-2.09l-2.92-10.46H145l1.57,7.18,1.18-7.18H151l-2.85,12.72c-.58,2.58-2.13,3.31-4.32,3.31H143Z" style="fill:#e6e6e6"/>
    </g>
</svg>