<?xml version="1.0" encoding="UTF-8"?>
<svg width="72" height="35" xmlns="http://www.w3.org/2000/svg" viewBox="0 0 72 35">
    <g id="License_-_SSL_SVG_" data-name="License - SSL (SVG)">
        <path d="M23.59,21.53h3.66c0,.4,0,.75,0,1.09,0,1.56.63,1.91,2,2a30.31,30.31,0,0,0,4.47,0c1.26-.08,1.77-.61,1.81-1.89V20.93A1.46,1.46,0,0,0,34.1,19.5c-1.34-.19-2.7-.11-4-.26-2.2-.16-4.65-.14-6-2.66a14.31,14.31,0,0,1-.27-5.09,4,4,0,0,1,1.9-2.86A8.6,8.6,0,0,1,28.21,8a43.53,43.53,0,0,1,4.56-.16,9.42,9.42,0,0,1,2.39.27,5.37,5.37,0,0,1,3,1.79c.64,1,.61,2.54.54,3.91h-3.4c-.14-.38.13-2.14-1.75-2.77a9.64,9.64,0,0,0-5,.17,1.42,1.42,0,0,0-.82.72,5.89,5.89,0,0,0,.06,3.45c.36.57,1.44.61,2,.65,2.62.16,6.59.6,7.53,1A3.15,3.15,0,0,1,39,19.17a10.82,10.82,0,0,1,.22,4.19c-.14,2.5-.89,3.46-4,4.12a33.54,33.54,0,0,1-6.67.23,6.89,6.89,0,0,1-2.69-.59A3.33,3.33,0,0,1,24,25,12.16,12.16,0,0,1,23.59,21.53Z" style="fill:#e6e6e6"/>
        <path d="M41,21.53h3.65c0,.4,0,.75,0,1.09,0,1.56.64,1.91,2,2a30.32,30.32,0,0,0,4.47,0c1.26-.08,1.77-.61,1.81-1.89V20.93a1.47,1.47,0,0,0-1.4-1.43c-1.34-.19-2.69-.11-4-.26-2.19-.16-4.65-.14-6-2.66a14.09,14.09,0,0,1-.28-5.09,4,4,0,0,1,1.9-2.86A8.66,8.66,0,0,1,45.58,8a43.24,43.24,0,0,1,4.55-.16,9.42,9.42,0,0,1,2.39.27,5.37,5.37,0,0,1,3,1.79c.64,1,.61,2.54.54,3.91h-3.4c-.14-.38.14-2.14-1.74-2.77a9.64,9.64,0,0,0-5,.17,1.42,1.42,0,0,0-.83.72,5.89,5.89,0,0,0,.06,3.45c.36.57,1.44.61,2.05.65,2.61.16,6.58.6,7.53,1a3.2,3.2,0,0,1,1.63,2.16,11,11,0,0,1,.21,4.19c-.14,2.5-.89,3.46-4,4.12a33.54,33.54,0,0,1-6.67.23,6.92,6.92,0,0,1-2.69-.59A3.33,3.33,0,0,1,41.39,25,12.15,12.15,0,0,1,41,21.53Z" style="fill:#e6e6e6"/>
        <path d="M62.84,24.26H72v3.45H59.3V27c0-.12,0-19.07,0-19.07h3.51Z" style="fill:#e6e6e6"/>
        <path d="M17.84,14s0-2.57,0-3.78a4.91,4.91,0,0,0-5-5.17H7A4.91,4.91,0,0,0,2,10.2C2,11.41,2,14,2,14H4.75V11C4.74,8.6,6.31,7.5,8.51,7.5h2.82c2.2,0,3.77,1.1,3.77,3.45v3Z" style="fill:#e6e6e6"/>
        <path d="M19.59,19.28V16.9a2.36,2.36,0,0,0-2.35-2.36H2.34A2.35,2.35,0,0,0,0,16.9V27.62A2.35,2.35,0,0,0,2.34,30h14.9a2.36,2.36,0,0,0,2.35-2.36v-.76H16.41v-1.2h3.18v-2H16.41v-1.2h3.18v-2H16.41v-1.2Zm-9,4.08v1.72a.67.67,0,0,1-.67.67h-.3A.67.67,0,0,1,9,25.08V23.36a1.91,1.91,0,0,1,.81-3.63,1.91,1.91,0,0,1,.82,3.63Z" style="fill:#e6e6e6"/>
    </g>
</svg>