<?xml version="1.0" encoding="UTF-8"?>
<svg width="96" height="20" xmlns="http://www.w3.org/2000/svg" viewBox="0 0 96 20">
    <g id="Bitcoin">
        <g id="Shape">
            <g id="g8020">
                <g id="g8022">
                    <g id="g8024">
                        <path id="path8026" d="M19.74,12.42A10,10,0,1,1,12.45.3a10,10,0,0,1,7.29,12.12Z" transform="translate(0)" style="fill:#f7931a"/>
                        <g id="g8028">
                            <g id="g8030">
                                <path id="path8032" d="M14.44,8.58c.2-1.34-.82-2-2.21-2.53l.46-1.8L11.59,4l-.44,1.75-.88-.21.44-1.76-1.1-.28L9.16,5.29l-.7-.17h0L6.94,4.74,6.65,5.91s.81.19.8.2A.59.59,0,0,1,8,6.75L7.45,8.8l.11,0-.12,0-.72,2.87a.39.39,0,0,1-.5.26s-.8-.19-.8-.19L4.88,13l1.43.36.78.2-.45,1.82,1.09.28.45-1.81.88.23-.45,1.79,1.1.28.46-1.82c1.87.35,3.28.21,3.88-1.48a1.93,1.93,0,0,0-1-2.66,1.77,1.77,0,0,0,1.41-1.61Zm-2.51,3.51c-.34,1.36-2.64.63-3.39.44l.61-2.41C9.89,10.3,12.28,10.67,11.93,12.09Zm.34-3.53C12,9.8,10,9.17,9.42,9L10,6.82C10.59,7,12.59,7.26,12.27,8.56Z" transform="translate(0)" style="fill:#fff"/>
                            </g>
                        </g>
                    </g>
                </g>
                <g id="g8034">
                    <path id="path8036" d="M29.37,6.05a4.9,4.9,0,0,1,2.11.43A4.24,4.24,0,0,1,33,7.65a4.72,4.72,0,0,1,.86,1.72,7.65,7.65,0,0,1,.28,2.12A8.43,8.43,0,0,1,29,19.33a8.16,8.16,0,0,1-3.29.67h-.81a11.41,11.41,0,0,1-1.3-.12q-.74-.11-1.56-.3A8,8,0,0,1,20.52,19L24.91.61,28.84,0,27.27,6.53a5.5,5.5,0,0,1,1-.35,4.72,4.72,0,0,1,1.09-.13Zm-3.3,10.84a3.53,3.53,0,0,0,1.68-.43,4.57,4.57,0,0,0,1.36-1.16,5.73,5.73,0,0,0,.9-1.63,5.79,5.79,0,0,0,.33-1.9,3.75,3.75,0,0,0-.41-1.9,1.61,1.61,0,0,0-1.5-.68,4.87,4.87,0,0,0-.92.13,2.26,2.26,0,0,0-1,.53l-1.67,6.93.26,0,.24,0,.31,0Z" transform="translate(0)" style="fill:#ccc"/>
                    <path id="path8038" d="M38.17,19.64H34.41L37.58,6.33h3.78ZM40,4.71a2.35,2.35,0,0,1-1.42-.47,1.65,1.65,0,0,1-.63-1.43,2.46,2.46,0,0,1,.21-1A3,3,0,0,1,38.72,1a3.13,3.13,0,0,1,.83-.54,2.42,2.42,0,0,1,1-.2A2.34,2.34,0,0,1,42,.72a1.7,1.7,0,0,1,.63,1.44,2.46,2.46,0,0,1-.21,1,2.58,2.58,0,0,1-.57.81,3,3,0,0,1-.83.54,2.38,2.38,0,0,1-1,.2Z" transform="translate(0)" style="fill:#ccc"/>
                    <path id="path8040" d="M44.65,3l3.94-.61-1,3.92h4.21l-.76,3.09H46.88l-1.11,4.66a5.66,5.66,0,0,0-.18,1.08,2,2,0,0,0,.13.88,1.09,1.09,0,0,0,.54.56,2.47,2.47,0,0,0,1.13.21,5.69,5.69,0,0,0,1.18-.12,7.4,7.4,0,0,0,1.16-.31L50,19.26a11.75,11.75,0,0,1-1.64.48,9.35,9.35,0,0,1-2.11.21,5.85,5.85,0,0,1-2.71-.52A3.05,3.05,0,0,1,42.16,18,4.68,4.68,0,0,1,41.81,16a13.12,13.12,0,0,1,.35-2.46Z" transform="translate(0)" style="fill:#ccc"/>
                    <path id="path8042" d="M51.67,14.33a9.34,9.34,0,0,1,.55-3.24,8,8,0,0,1,1.6-2.66,7.47,7.47,0,0,1,2.53-1.8A8.18,8.18,0,0,1,59.66,6a9,9,0,0,1,2,.21,9.28,9.28,0,0,1,1.64.57L62,9.7c-.34-.14-.69-.26-1-.37a4.7,4.7,0,0,0-1.33-.16,3.7,3.7,0,0,0-3,1.29,5.12,5.12,0,0,0-1.11,3.46A3.57,3.57,0,0,0,56.13,16a2.32,2.32,0,0,0,2,.8,6.67,6.67,0,0,0,1.43-.15,6.9,6.9,0,0,0,1.21-.38l.28,3a14.59,14.59,0,0,1-1.57.5,8.74,8.74,0,0,1-2.05.21,6.83,6.83,0,0,1-2.67-.46A5.07,5.07,0,0,1,53,18.32a4.85,4.85,0,0,1-1-1.81,7.51,7.51,0,0,1-.31-2.18Z" transform="translate(0)" style="fill:#ccc"/>
                    <path id="path8044" d="M68.34,20A6.14,6.14,0,0,1,66,19.59a4.4,4.4,0,0,1-1.64-1.14,4.8,4.8,0,0,1-1-1.73,7,7,0,0,1-.33-2.21,9.71,9.71,0,0,1,.49-3A8.76,8.76,0,0,1,65,8.74a7.71,7.71,0,0,1,2.36-2A6.44,6.44,0,0,1,70.57,6a6.22,6.22,0,0,1,2.33.4,4.44,4.44,0,0,1,1.65,1.14,5,5,0,0,1,1,1.73,7.09,7.09,0,0,1,.33,2.22,10.1,10.1,0,0,1-.48,3A8.66,8.66,0,0,1,74,17.24a7.57,7.57,0,0,1-2.35,2,6.68,6.68,0,0,1-3.26.77ZM70.22,9.17a2.36,2.36,0,0,0-1.47.48,4,4,0,0,0-1.06,1.21A5.85,5.85,0,0,0,67,12.47a6.6,6.6,0,0,0-.22,1.66,4,4,0,0,0,.41,2,1.55,1.55,0,0,0,1.47.71,2.36,2.36,0,0,0,1.47-.48,4.22,4.22,0,0,0,1.07-1.22,6,6,0,0,0,.64-1.6,6.66,6.66,0,0,0,.22-1.66,4.05,4.05,0,0,0-.41-2A1.55,1.55,0,0,0,70.22,9.17Z" transform="translate(0)" style="fill:#ccc"/>
                    <path id="path8046" d="M79.94,19.64H76.19L79.36,6.33h3.78ZM81.77,4.71a2.33,2.33,0,0,1-1.42-.47,1.63,1.63,0,0,1-.64-1.43,2.31,2.31,0,0,1,.22-1A2.58,2.58,0,0,1,80.5,1a3.07,3.07,0,0,1,.82-.54,2.45,2.45,0,0,1,1-.2,2.37,2.37,0,0,1,1.43.46,1.7,1.7,0,0,1,.63,1.44,2.31,2.31,0,0,1-.22,1,2.58,2.58,0,0,1-.57.81,2.92,2.92,0,0,1-.82.54A2.42,2.42,0,0,1,81.77,4.71Z" transform="translate(0)" style="fill:#ccc"/>
                    <path id="path8048" d="M85.84,6.94l1-.29q.52-.17,1.17-.3a12.64,12.64,0,0,1,1.45-.23A16.2,16.2,0,0,1,91.22,6c2,0,3.34.57,4.1,1.72a5.88,5.88,0,0,1,.39,4.71L94,19.64H90.2l1.68-7c.1-.44.18-.87.24-1.28a3,3,0,0,0,0-1.09,1.35,1.35,0,0,0-.47-.76,1.84,1.84,0,0,0-1.13-.29,7.78,7.78,0,0,0-1.5.15l-2.46,10.3H82.77l3.07-12.7Z" transform="translate(0)" style="fill:#ccc"/>
                </g>
            </g>
        </g>
    </g>
</svg>