<?xml version="1.0" encoding="UTF-8"?>
<svg width="80" height="20" xmlns="http://www.w3.org/2000/svg" viewBox="0 0 80 20">
    <defs>
        <radialGradient id="radial-gradient" cx="11.79" cy="403.83" r="15.2" gradientTransform="translate(-4.17 -485.36) scale(1.19 1.21)" gradientUnits="userSpaceOnUse">
            <stop offset="0" stop-color="#81c241"/>
            <stop offset="1" stop-color="#8bc53f"/>
        </radialGradient>
    </defs>
    <g id="EcoPayz">
        <g id="EcoPayz_Shape">
            <path d="M1.43,9.21C1.5,4.49,7.84.76,15.61.87a18.89,18.89,0,0,1,10.57,3C23.66,1.62,19.32.07,14.38,0,6.5-.07.06,3.63,0,8.31a6.6,6.6,0,0,0,2.74,5.08A7.52,7.52,0,0,1,1.43,9.21Z" transform="translate(0 0)" style="fill:url(#radial-gradient)"/>
            <path d="M15,9.64a1.36,1.36,0,0,1-.41,1.11,2,2,0,0,1-1.25.3H7.24a1.52,1.52,0,0,0,.9,1.42,3.94,3.94,0,0,0,1.81.39,4.93,4.93,0,0,0,2-.51,5.28,5.28,0,0,1,1.49-.52,1.41,1.41,0,0,1,1,.41,1.38,1.38,0,0,1,.41,1c0,.87-.69,1.56-2.09,2a9.89,9.89,0,0,1-3.24.55A5.67,5.67,0,0,1,3.58,10,5.58,5.58,0,0,1,5.29,6a5.67,5.67,0,0,1,4.2-1.8,5.24,5.24,0,0,1,4,1.62A5.36,5.36,0,0,1,15,9.64ZM11.6,8.83a1.88,1.88,0,0,0-.71-1.33,2.12,2.12,0,0,0-3,0,1.73,1.73,0,0,0-.69,1.33Z" transform="translate(0 0)" style="fill:#1c437d"/>
            <path d="M25.06,13.6c0,.72-.5,1.3-1.49,1.73a6.45,6.45,0,0,1-2.52.51,5.45,5.45,0,0,1-4.18-1.76,6.17,6.17,0,0,1,0-8.25A5.36,5.36,0,0,1,21,4.13a7.11,7.11,0,0,1,2.54.4c1,.38,1.47,1,1.47,1.73a1.53,1.53,0,0,1-.39,1,1.23,1.23,0,0,1-1,.46,4.11,4.11,0,0,1-1.16-.22,4.41,4.41,0,0,0-1.24-.25,2.3,2.3,0,0,0-1.88.81A2.81,2.81,0,0,0,18.74,10a3.07,3.07,0,0,0,.56,1.86,2,2,0,0,0,1.76.88,4.92,4.92,0,0,0,1.36-.28,4.88,4.88,0,0,1,1.26-.27,1.3,1.3,0,0,1,1,.45A1.42,1.42,0,0,1,25.06,13.6Z" transform="translate(0 0)" style="fill:#1c437d"/>
            <path d="M36.2,10a5.87,5.87,0,0,1-1.55,4.07,5.44,5.44,0,0,1-4.17,1.76,5.45,5.45,0,0,1-4.18-1.76A5.9,5.9,0,0,1,24.76,10,5.85,5.85,0,0,1,26.3,6a5.48,5.48,0,0,1,4.18-1.8,5.37,5.37,0,0,1,4.18,1.73A5.81,5.81,0,0,1,36.2,10Zm-3.41,0a3,3,0,0,0-.57-1.85,2.2,2.2,0,0,0-3.12-.38,3.32,3.32,0,0,0-.37.38A3.06,3.06,0,0,0,28.17,10a3.2,3.2,0,0,0,.56,1.88,2.2,2.2,0,0,0,3.13.37,2.1,2.1,0,0,0,.36-.37A3.05,3.05,0,0,0,32.79,10Z" transform="translate(0 0)" style="fill:#1c437d"/>
            <path d="M37.31,14.08V2.48a1.48,1.48,0,0,1,.45-1.14A1.65,1.65,0,0,1,39,.87h3.84a6,6,0,0,1,4,1.38,4.43,4.43,0,0,1,1.62,3.57,4.37,4.37,0,0,1-1.6,3.55A5.85,5.85,0,0,1,43,10.68H40.56v3.4a1.48,1.48,0,0,1-.46,1.19,1.75,1.75,0,0,1-1.16.41,1.69,1.69,0,0,1-1.16-.41,1.49,1.49,0,0,1-.47-1.19ZM40.56,8h2.22a2.09,2.09,0,0,0,1.64-.61,2.3,2.3,0,0,0,0-3.1,2.19,2.19,0,0,0-1.64-.63H40.56Z" transform="translate(0 0)" style="fill:url(#radial-gradient)"/>
            <path d="M59.46,6.37v7.71a2.16,2.16,0,0,1,0,.36,1.73,1.73,0,0,1-.36.86,1.76,1.76,0,0,1-2.12.06,2.22,2.22,0,0,1-.5-.9,4.16,4.16,0,0,1-1.34,1,4,4,0,0,1-1.63.35,4.82,4.82,0,0,1-3.69-1.61,5.72,5.72,0,0,1-1.49-4.06,5.78,5.78,0,0,1,1.51-4.07,4.81,4.81,0,0,1,3.63-1.75,4.15,4.15,0,0,1,1.66.34,3.1,3.1,0,0,1,1.31,1,1.35,1.35,0,0,1,.5-.9,1.56,1.56,0,0,1,1-.36,1.31,1.31,0,0,1,1.12.41,1.73,1.73,0,0,1,.36.87,2,2,0,0,1,0,.35v.29Zm-8,3.69v.21a.61.61,0,0,0,0,.19,3.36,3.36,0,0,0,.68,1.78,2,2,0,0,0,1.77.83,2,2,0,0,0,1.71-.83,3.39,3.39,0,0,0,.68-1.78.61.61,0,0,0,0-.19V9.64a3.56,3.56,0,0,0-.7-1.77,2,2,0,0,0-1.69-.8,2,2,0,0,0-1.75.8,3.44,3.44,0,0,0-.7,1.77v.44h0Z" transform="translate(0 0)" style="fill:url(#radial-gradient)"/>
            <path d="M59.92,6.48a1.91,1.91,0,0,1-.1-.34,2.8,2.8,0,0,1,0-.41A1,1,0,0,1,60.16,5a1.79,1.79,0,0,1,.77-.46h.35a1.65,1.65,0,0,1,1.6,1L65,11l2.31-5.58a1.59,1.59,0,0,1,.59-.74,1.55,1.55,0,0,1,1-.29h.35a1.88,1.88,0,0,1,.78.46,1.05,1.05,0,0,1,.35.78,2.81,2.81,0,0,1,0,.41,1.18,1.18,0,0,1-.12.36l-5.3,12.4a2.44,2.44,0,0,1-.56.82,1.29,1.29,0,0,1-.93.35,1.68,1.68,0,0,1-1.21-.4,1.22,1.22,0,0,1-.41-.88v-.28a1.37,1.37,0,0,1,.07-.29,1,1,0,0,1,.1-.29l1.37-3.2Z" transform="translate(0 0)" style="fill:url(#radial-gradient)"/>
            <path d="M70.26,13.7l4.9-6.53H71.53a1.42,1.42,0,0,1-1-.32,1.12,1.12,0,0,1-.42-.95,1.11,1.11,0,0,1,.42-1,1.49,1.49,0,0,1,1-.34h7.32l.25.06a.92.92,0,0,1,.35.27.82.82,0,0,1,.18.56.91.91,0,0,1,0,.33,2.33,2.33,0,0,1-.07.25l-.1.14-.12.16-4.89,6.55h4.14a1.66,1.66,0,0,1,1,.37,1.3,1.3,0,0,1,.08,1.82l-.08.08a1.57,1.57,0,0,1-1,.32H71.25a1.68,1.68,0,0,1-.9-.23.79.79,0,0,1-.38-.75,1,1,0,0,1,.06-.35,1.39,1.39,0,0,1,.12-.28l.06-.1v-.08h0Z" transform="translate(0 0)" style="fill:url(#radial-gradient)"/>
        </g>
    </g>
</svg>