<?xml version="1.0" encoding="UTF-8"?>
<svg width="41" height="20" xmlns="http://www.w3.org/2000/svg" viewBox="0 0 41 20">
    <g id="Interac_Online">
        <g id="cc_interac" data-name="cc/interac">
            <g id="nav-logo">
                <g id="Group">
                    <path id="Shape" d="M20,18a1.63,1.63,0,0,1-1.64,1.61H2A1.62,1.62,0,0,1,.35,18V2A1.62,1.62,0,0,1,2,.34H18.37A1.63,1.63,0,0,1,20,2Z" style="fill:#fdb913"/>
                    <path id="Shape-2" data-name="Shape" d="M39,0H2A2,2,0,0,0,0,2v16.1A2,2,0,0,0,2,20H39a2,2,0,0,0,2-1.95V2A2,2,0,0,0,39,0ZM2,19.65A1.62,1.62,0,0,1,.35,18V2A1.62,1.62,0,0,1,2,.34H18.37A1.63,1.63,0,0,1,20,2v16.1a1.63,1.63,0,0,1-1.64,1.61ZM40.65,18A1.62,1.62,0,0,1,39,19.65H19.49A2,2,0,0,0,20.36,18V2A1.93,1.93,0,0,0,19.49.34H39A1.62,1.62,0,0,1,40.65,2Z" style="fill:#fff"/>
                </g>
                <path id="Shape-3" data-name="Shape" d="M20.36,2v16.1a1.93,1.93,0,0,1-.87,1.61H39a1.62,1.62,0,0,0,1.64-1.61V2A1.62,1.62,0,0,0,39,.34H19.49A2,2,0,0,1,20.36,2Z" style="fill:#555"/>
                <path id="Online" d="M24.32,12.66a1.44,1.44,0,0,1-1.17-.43A1.94,1.94,0,0,1,22.8,11V9a1.88,1.88,0,0,1,.35-1.25,1.44,1.44,0,0,1,1.17-.42,1.43,1.43,0,0,1,1.16.42A1.88,1.88,0,0,1,25.84,9V11a1.93,1.93,0,0,1-.36,1.26A1.42,1.42,0,0,1,24.32,12.66Zm0-.7a.44.44,0,0,0,.43-.2,1.22,1.22,0,0,0,.11-.57V8.8a1.22,1.22,0,0,0-.11-.57A.44.44,0,0,0,24.32,8a.47.47,0,0,0-.44.19,1.22,1.22,0,0,0-.11.57v2.39a1.22,1.22,0,0,0,.11.57A.45.45,0,0,0,24.32,12Zm2.17-3.07h.88v.37a1.33,1.33,0,0,1,.91-.43.54.54,0,0,1,.48.23,1,1,0,0,1,.16.59v2.94H28V9.82A.43.43,0,0,0,28,9.56a.22.22,0,0,0-.2-.09.93.93,0,0,0-.41.18v2.94h-.88Zm3.14-1.48h.88v5.18h-.88Zm1.61.17h.88V8.3h-.88Zm0,1.31h.88v3.7h-.88Zm1.59,0h.88v.37a1.33,1.33,0,0,1,.92-.43.53.53,0,0,1,.47.23,1,1,0,0,1,.16.59v2.94h-.88V9.82a.43.43,0,0,0-.06-.26.2.2,0,0,0-.2-.09.93.93,0,0,0-.41.18v2.94h-.88Zm4.22,3.76a1.13,1.13,0,0,1-.91-.35,1.47,1.47,0,0,1-.3-1v-1.1a1.51,1.51,0,0,1,.3-1,1.17,1.17,0,0,1,.91-.34,1.09,1.09,0,0,1,.91.35,1.83,1.83,0,0,1,.26,1.07v.53h-1.5v.57a1.6,1.6,0,0,0,.06.51.25.25,0,0,0,.27.16.27.27,0,0,0,.25-.12.69.69,0,0,0,.08-.36v-.31h.83v.25a1.22,1.22,0,0,1-.29.87A1.16,1.16,0,0,1,37.05,12.65Zm.33-2.3V10a.91.91,0,0,0-.07-.42.28.28,0,0,0-.26-.12.27.27,0,0,0-.26.13,1.36,1.36,0,0,0-.07.5v.26Z" style="fill:#fff;fill-rule:evenodd"/>
                <g id="Group-2" data-name="Group">
                    <path id="Shape-4" data-name="Shape" d="M11.31,10.21V6.74l.92-.21V7a1.32,1.32,0,0,1,.8-.74.47.47,0,0,1,.25,0v.88a1.24,1.24,0,0,0-.48.1.81.81,0,0,0-.51.86V10Z" style="fill:#1c1601"/>
                    <path id="Shape-5" data-name="Shape" d="M6.47,11.33a2.07,2.07,0,0,1-.15-1V8.61l-.47.11V8l.47-.11V7.12l1-.23v.78L8,7.51v.72l-.69.15v1.75c0,.8.22,1,.22,1Z" style="fill:#1c1601"/>
                    <path id="Shape-6" data-name="Shape" d="M8.09,9.27a2.8,2.8,0,0,1,.28-1.41,1.67,1.67,0,0,1,1.14-.79C10.59,6.83,11,7.45,11,8.29c0,.3,0,.44,0,.44l-1.88.44v0c0,.58.12.86.5.78A.5.5,0,0,0,10,9.47s0-.14,0-.14l.89-.21v.15a1.48,1.48,0,0,1-1.34,1.45C8.4,11,8.09,10.28,8.09,9.27ZM9.56,7.71c-.31.07-.48.37-.48.87L10,8.36V8.21C10,7.83,9.91,7.63,9.56,7.71Z" style="fill:#1c1601"/>
                    <path id="Shape-7" data-name="Shape" d="M16.58,7.24c0-1,.24-1.88,1.44-2.15.76-.17,1.05,0,1.19.21a1.15,1.15,0,0,1,.2.76v.06l-.93.23V6.22c0-.4-.11-.56-.41-.48s-.5.41-.5,1.07v.31c0,.66.09,1,.5.88s.4-.38.4-.64V7.18L19.4,7v.14a1.55,1.55,0,0,1-1.34,1.62C16.86,9,16.61,8.33,16.58,7.24Z" style="fill:#1c1601"/>
                    <g id="Group-116"><path id="Shape-8" data-name="Shape" d="M18.69,4.65A.74.74,0,0,1,18,4.21a.71.71,0,0,1,.16-.79A.75.75,0,0,1,19,3.26a.72.72,0,0,1-.28,1.39m0-1.35a.63.63,0,1,0,.64.63.64.64,0,0,0-.64-.63" style="fill:#1c1601"/>
                        <path id="Shape-9" data-name="Shape" d="M18.43,3.54h.28a.23.23,0,0,1,.16.06.17.17,0,0,1,.05.15.17.17,0,0,1-.14.19h0c.08,0,.13.06.13.17a.86.86,0,0,0,0,.16.09.09,0,0,0,0,.07h-.14a.1.1,0,0,1,0-.07.76.76,0,0,1,0-.15c0-.09,0-.13-.12-.13h-.1v.35h-.13Zm.23.36a.13.13,0,0,0,.1,0,.14.14,0,0,0,0-.09c0-.09,0-.13-.12-.13h-.11V3.9Z" style="fill:#1c1601"/>
                    </g>
                    <path id="Shape-10" data-name="Shape" d="M13.35,8.73c0-.81.48-1.06,1.19-1.35s.66-.39.66-.62-.08-.36-.4-.27a.46.46,0,0,0-.39.45c0,.09,0,.18,0,.18l-.9.21a2,2,0,0,1,.06-.53c.14-.48.58-.8,1.32-1,1-.22,1.28.19,1.29.84V8.2c0,.74.14.85.14.85l-.88.2a1.25,1.25,0,0,1-.12-.31,1.24,1.24,0,0,1-.87.64A.81.81,0,0,1,13.35,8.73ZM15.2,7.62a4.41,4.41,0,0,1-.47.27.63.63,0,0,0-.43.59.31.31,0,0,0,.41.33.68.68,0,0,0,.49-.7Z" style="fill:#1c1601"/>
                    <path id="Shape-11" data-name="Shape" d="M1.36,13.75A.56.56,0,0,1,.8,13.2a.54.54,0,0,1,.09-.31h0l1.33-.3v1h0l-.73.16Z" style="fill:#1c1601"/>
                    <path id="Shape-12" data-name="Shape" d="M1.36,15a.56.56,0,0,1-.56-.56.53.53,0,0,1,.09-.3h0l1.33-.31v1h0c-.3.08-.66.16-.73.17Z" style="fill:#1c1601"/>
                    <path id="Shape-13" data-name="Shape" d="M1.36,16.29a.56.56,0,0,1-.56-.56.53.53,0,0,1,.09-.3h0l1.34-.31v1h0l-.73.17Z" style="fill:#1c1601"/>
                    <polygon id="Shape-14" data-name="Shape" points="1.21 12.54 1.21 7 2.24 6.75 2.24 12.3 1.21 12.54" style="fill:#1c1601"/>
                    <path id="Shape-15" data-name="Shape" d="M3.78,12.07a.64.64,0,0,0-1.27,0v5.18a1.71,1.71,0,0,0,1.72,1.68H6V14.35a.78.78,0,0,0-.37-.67l-1.6-1.07V15a.15.15,0,0,1-.14.14A.13.13,0,0,1,3.79,15S3.78,12.38,3.78,12.07Z" style="fill:#1c1601"/>
                    <path id="Shape-16" data-name="Shape" d="M4.63,8.2a1.34,1.34,0,0,0-.91.69V8.5l-.92.22v2.49a.94.94,0,0,1,.34-.07.92.92,0,0,1,.63.23V9.76A.7.7,0,0,1,4.24,9c.2,0,.38,0,.38.4v2.34l1-.22V9.05C5.6,8.45,5.36,8,4.63,8.2Z" style="fill:#1c1601"/>
                </g>
            </g>
        </g>
    </g>
</svg>