<?xml version="1.0" encoding="UTF-8"?>
<svg width="93" height="20" xmlns="http://www.w3.org/2000/svg" viewBox="0 0 93 20">
    <g id="Maestro">
        <g id="Logo">
            <path d="M84.2,7.23a2.93,2.93,0,0,1,1,.18l-.44,1.35a2.27,2.27,0,0,0-.9-.17c-.94,0-1.41.61-1.41,1.7V14H81V7.39h1.42v.8a1.94,1.94,0,0,1,1.74-1M78.9,8.7H76.56v3c0,.66.23,1.11,1,1.11a2.66,2.66,0,0,0,1.27-.38l.41,1.23a3.32,3.32,0,0,1-1.79.51c-1.7,0-2.29-.91-2.29-2.44v-3H73.77V7.39h1.34v-2h1.45v2H78.9ZM60.56,10.11a1.7,1.7,0,0,1,1.75-1.6A1.65,1.65,0,0,1,64,10.11Zm4.91.58c0-2.06-1.29-3.46-3.13-3.46a3.22,3.22,0,0,0-3.28,3.46,3.25,3.25,0,0,0,3.37,3.46,4,4,0,0,0,2.7-.92l-.7-1.07a3.07,3.07,0,0,1-1.91.69,1.82,1.82,0,0,1-2-1.61h4.89c0-.18,0-.36,0-.55m6.29-1.61a4.21,4.21,0,0,0-2.05-.57c-.79,0-1.25.29-1.25.77s.49.57,1.11.65l.68.1c1.43.2,2.3.81,2.3,2s-1.11,2.15-3,2.15a4.75,4.75,0,0,1-2.85-.85l.68-1.12a3.52,3.52,0,0,0,2.19.69c1,0,1.5-.29,1.5-.8s-.37-.58-1.16-.69l-.67-.1C67.75,11.07,67,10.41,67,9.34,67,8,68,7.23,69.7,7.23a4.87,4.87,0,0,1,2.68.69Zm17.68-.49a2.27,2.27,0,0,0-.83.15,2,2,0,0,0-.65.44,2.05,2.05,0,0,0-.44.67,2.39,2.39,0,0,0-.16.86,2.35,2.35,0,0,0,.16.86,2,2,0,0,0,1.09,1.11,2.34,2.34,0,0,0,1.65,0,2,2,0,0,0,1.1-1.11,2.35,2.35,0,0,0,.15-.86,2.39,2.39,0,0,0-.15-.86,2.23,2.23,0,0,0-.44-.67,2.12,2.12,0,0,0-.66-.44,2.25,2.25,0,0,0-.82-.15m0-1.36a3.8,3.8,0,0,1,1.41.26A3.41,3.41,0,0,1,92,8.23a3.36,3.36,0,0,1,.75,1.1,3.66,3.66,0,0,1,0,2.76A3.3,3.3,0,0,1,92,13.2a3.39,3.39,0,0,1-1.13.73,3.84,3.84,0,0,1-2.83,0,3.49,3.49,0,0,1-1.13-.73,3.43,3.43,0,0,1-.74-1.11,3.52,3.52,0,0,1,.74-3.86A3.52,3.52,0,0,1,88,7.49a3.82,3.82,0,0,1,1.42-.26M52.19,10.69a2,2,0,1,1,4,0,2,2,0,1,1-4,0m5.33,0V7.39H56.09v.8a2.52,2.52,0,0,0-2.08-1,3.3,3.3,0,0,0-3.3,3.46A3.31,3.31,0,0,0,54,14.15a2.52,2.52,0,0,0,2.08-1V14h1.43ZM49.44,14V9.85a2.45,2.45,0,0,0-2.59-2.62A2.52,2.52,0,0,0,44.54,8.4a2.41,2.41,0,0,0-2.18-1.17,2.17,2.17,0,0,0-1.93,1V7.39H39V14h1.45V10.33a1.54,1.54,0,0,1,1.61-1.75c.95,0,1.43.62,1.43,1.74V14h1.45V10.33a1.55,1.55,0,0,1,1.61-1.75c1,0,1.45.62,1.45,1.74V14Z" style="fill:#fff"/>
            <path d="M20.92,17.86H12V2.14h8.9Z" style="fill:#6c6bbd"/>
            <path d="M12.59,10a9.91,9.91,0,0,1,3.89-7.86A10.28,10.28,0,0,0,10.18,0,10.09,10.09,0,0,0,0,10,10.09,10.09,0,0,0,10.18,20a10.28,10.28,0,0,0,6.3-2.14A9.91,9.91,0,0,1,12.59,10" style="fill:#eb001b"/>
            <path d="M32.94,10A10.09,10.09,0,0,1,22.76,20a10.23,10.23,0,0,1-6.29-2.14,9.89,9.89,0,0,0,0-15.72A10.23,10.23,0,0,1,22.76,0,10.09,10.09,0,0,1,32.94,10" style="fill:#0099df"/>
        </g>
    </g>
</svg>