<?xml version="1.0" encoding="UTF-8"?>
<svg width="110" height="20" xmlns="http://www.w3.org/2000/svg" viewBox="0 0 110 20">
    <g id="Mastercard">
        <path d="M51.63,10.67a2,2,0,1,1,3.94,0,2,2,0,1,1-3.94,0m5.27,0V7.32H55.49v.81a2.45,2.45,0,0,0-2.06-1,3.32,3.32,0,0,0-3.25,3.52,3.32,3.32,0,0,0,3.25,3.53,2.43,2.43,0,0,0,2.06-1V14H56.9Zm47.83,0a2,2,0,1,1,3.93,0,2,2,0,1,1-3.93,0m5.27,0v-6h-1.42v3.5a2.45,2.45,0,0,0-2-1,3.32,3.32,0,0,0-3.26,3.52,3.32,3.32,0,0,0,3.26,3.53,2.43,2.43,0,0,0,2-1V14H110ZM74.47,8.46a1.64,1.64,0,0,1,1.65,1.62H72.74a1.69,1.69,0,0,1,1.73-1.62m0-1.31a3.23,3.23,0,0,0-3.24,3.52,3.26,3.26,0,0,0,3.33,3.53,3.92,3.92,0,0,0,2.67-.94l-.69-1.08a3.11,3.11,0,0,1-1.89.7,1.82,1.82,0,0,1-2-1.65h4.83a5,5,0,0,0,0-.56c0-2.09-1.27-3.52-3.09-3.52m17.09,3.52a2,2,0,1,1,3.93,0,2,2,0,1,1-3.93,0m5.27,0V7.32H95.44v.81a2.45,2.45,0,0,0-2-1,3.32,3.32,0,0,0-3.26,3.52,3.32,3.32,0,0,0,3.26,3.53,2.43,2.43,0,0,0,2-1V14h1.42Zm-13.26,0a3.56,3.56,0,0,0,5.81,2.73l-.68-1.18a2.82,2.82,0,0,1-1.7.6,2,2,0,0,1-2-2.15,2,2,0,0,1,2-2.14,2.82,2.82,0,0,1,1.7.6L89.41,8a3.56,3.56,0,0,0-5.81,2.72m18.24-3.52a1.92,1.92,0,0,0-1.71,1V7.32H98.72V14h1.42V10.27c0-1.11.46-1.73,1.39-1.73a2.15,2.15,0,0,1,.88.17l.44-1.37a2.86,2.86,0,0,0-1-.19m-37.94.7a4.77,4.77,0,0,0-2.65-.7c-1.65,0-2.71.82-2.71,2.15,0,1.09.79,1.77,2.24,2l.67.1c.78.11,1.15.32,1.15.7s-.52.81-1.49.81a3.36,3.36,0,0,1-2.16-.7l-.67,1.14a4.61,4.61,0,0,0,2.82.87c1.88,0,3-.92,3-2.19s-.86-1.8-2.28-2l-.66-.1C60.51,9.82,60,9.69,60,9.24s.47-.78,1.24-.78a4.12,4.12,0,0,1,2,.57Zm18.26-.7a1.93,1.93,0,0,0-1.71,1V7.32h-1.4V14h1.41V10.27c0-1.11.47-1.73,1.39-1.73a2.2,2.2,0,0,1,.89.17l.43-1.37a2.86,2.86,0,0,0-1-.19m-12.07.17H67.77v-2H66.34v2H65V8.65h1.32v3.06c0,1.56.59,2.49,2.26,2.49a3.26,3.26,0,0,0,1.77-.52L70,12.43a2.56,2.56,0,0,1-1.25.38c-.71,0-.94-.45-.94-1.13v-3h2.32ZM48.93,14V9.82a2.64,2.64,0,0,0-4.85-1.47,2.37,2.37,0,0,0-2.15-1.2,2.13,2.13,0,0,0-1.91,1V7.32H38.6V14H40V10.31c0-1.16.63-1.78,1.6-1.78S43,9.16,43,10.3V14h1.43V10.31a1.57,1.57,0,0,1,1.6-1.78c1,0,1.42.63,1.42,1.77V14Z" style="fill:#fff"/>
        <g id="Logo">
            <path d="M20.81,17.86H12V2.14h8.86Z" style="fill:#ff5f00"/>
            <path d="M12.51,10a10,10,0,0,1,3.87-7.86A10.15,10.15,0,0,0,0,10a10.15,10.15,0,0,0,16.38,7.86A10,10,0,0,1,12.51,10" style="fill:#eb001b"/>
            <path d="M32.75,10A10.06,10.06,0,0,1,22.63,20a10.16,10.16,0,0,1-6.26-2.14,9.92,9.92,0,0,0,0-15.72A10.16,10.16,0,0,1,22.63,0,10.06,10.06,0,0,1,32.75,10" style="fill:#f79e1b"/>
        </g>
    </g>
</svg>