<?xml version="1.0" encoding="UTF-8"?>
<svg width="140" height="20" xmlns="http://www.w3.org/2000/svg" viewBox="0 0 140 20">
    <g id="Neteller">
        <g id="Shape">
            <path d="M120.92,8.73a6.17,6.17,0,0,1-3.26.68h-1.45l1.11-5.36h1.07a5.42,5.42,0,0,1,2.7.52,2,2,0,0,1,1,1.88,2.53,2.53,0,0,1-1.22,2.28M34.53,15.46H23.32L24,12h7l.8-4h-7l.67-3.47H36.77ZM127,1.52C125.31.51,122.82,0,119.55,0H111L107.8,15.47H96.59L97.31,12h6.75L104.87,8H98.11l.73-3.5h7L106.72,0H92.58l-3,14.67H84.38L87.42,0H80L77,14.67H72L75,0H67.62L64.43,15.47H53.13L53.85,12h6.78L61.43,8H54.65l.72-3.5h7L63.33,0h-44L16.78,12.26,11.79,0H4.13L0,20H7.32L9.82,7.41,14.66,20H40.9L44.09,4.53h4.1L45,20h69l2-9.76L119.28,20h7.32l-3.35-8,.76-.15a6.72,6.72,0,0,0,3.93-2.06,5.89,5.89,0,0,0,1.38-4A4.61,4.61,0,0,0,127,1.52m8.66,14.83,1.06-.06a1.3,1.3,0,0,0,.52-.1.51.51,0,0,0,.28-.24.62.62,0,0,0-.13-.77,1,1,0,0,0-.62-.14l-1.18.07Zm-.4,2.11L135,14.72l1.66-.09a2.48,2.48,0,0,1,.77.06.81.81,0,0,1,.43.34,1,1,0,0,1,.18.55,1,1,0,0,1-.22.69,1.35,1.35,0,0,1-.78.39,1.17,1.17,0,0,1,.31.17,2.79,2.79,0,0,1,.44.47l.7,1-.62,0-.54-.75a4.82,4.82,0,0,0-.38-.5,1.2,1.2,0,0,0-.26-.24,1.09,1.09,0,0,0-.23-.09h-.28l-.57,0,.08,1.66Z" transform="translate(0)" style="fill:#8dc640"/>
            <path d="M133.6,16.65a2.9,2.9,0,0,1,5.8-.3s0,.1,0,.15a2.91,2.91,0,0,1-5.81.15M136.32,13A3.5,3.5,0,1,0,140,16.32h0A3.52,3.52,0,0,0,136.32,13" transform="translate(0)" style="fill:#8dc640"/>
        </g>
    </g>
</svg>