<?xml version="1.0" encoding="UTF-8"?>
<svg width="32" height="20" xmlns="http://www.w3.org/2000/svg" viewBox="0 0 32 20">
    <g id="Siru_Mobile">
        <path d="M6.62.9.88,6.71A3.09,3.09,0,0,0,0,8.87v9.42A1.7,1.7,0,0,0,1.69,20H30.31A1.71,1.71,0,0,0,32,18.29V1.71A1.7,1.7,0,0,0,30.31,0H8.76A3,3,0,0,0,6.62.9Z" style="fill:#bf232f"/>
        <path d="M10.07,5.83c-.16.46-.31.93-.46,1.4a2.74,2.74,0,0,0-2.3-.55.67.67,0,0,0-.48.9c.18.45.83.62,1.25.75a3.2,3.2,0,0,1,2,1.22,2.28,2.28,0,0,1-.57,2.7,3.23,3.23,0,0,1-1.86.63,4.45,4.45,0,0,1-2.59-.66c.15-.47.31-.94.46-1.4a3.39,3.39,0,0,0,2.14.62,1.25,1.25,0,0,0,.87-.34.62.62,0,0,0,0-.87,2,2,0,0,0-.9-.45,4.42,4.42,0,0,1-1.92-.93,2.22,2.22,0,0,1-.4-2.24,2.18,2.18,0,0,1,1.53-1.3,3.88,3.88,0,0,1,3.21.52Zm15.3-.54c.52,0,1.05,0,1.57,0,0,1.43,0,2.86,0,4.29a3.62,3.62,0,0,1-1,2.64,3.25,3.25,0,0,1-2.68.63,2.64,2.64,0,0,1-1.8-1.12,4.7,4.7,0,0,1-.62-2.52c0-1.31,0-2.61,0-3.92h1.58V9.2a3.28,3.28,0,0,0,.32,1.64,1.42,1.42,0,0,0,2.36,0,3.08,3.08,0,0,0,.31-1.43c0-1.37,0-2.74,0-4.1Zm-14.25,0H12.7c0,2.49,0,5,0,7.47H11.12V5.28Zm7.22,4.5a2.37,2.37,0,0,0,1-.75,2.48,2.48,0,0,0,.35-2,2,2,0,0,0-.94-1.33,4.16,4.16,0,0,0-2.12-.42c-.92,0-1.85,0-2.77,0,0,.29,0,.6,0,.89v6.57h1.58V10.06c.44,0,.93,0,1.36,0,.61.88,1.19,1.78,1.78,2.67h1.82l-2-3Zm-.28-1.69a1,1,0,0,1-.89.5c-.59.05-1.19,0-1.78,0,0-.63,0-1.27,0-1.91H17a1.32,1.32,0,0,1,1,.37,1,1,0,0,1,.09,1Z" style="fill:#fff"/>
        <path d="M5.62,13.76c.22.33.44.66.65,1l.66-1H7.4v2.35H6.89c0-.48,0-1,0-1.45-.23.3-.42.63-.63.94-.21-.33-.41-.65-.64-1,0,.49,0,1,0,1.47H5.15c0-.78,0-1.56,0-2.35Zm12.78,0h.51v2.35H18.4V13.76Zm3.45,0c0,.63,0,1.26,0,1.89h1.08c0,.16,0,.31,0,.46H21.35V13.76Zm3.36,0h1.73c0,.16,0,.31,0,.46h-1.2v.43h1.07v.46H25.72c0,.18,0,.37,0,.55h1.21c0,.16,0,.31,0,.46H25.22c0-.78,0-1.56,0-2.35Zm-13.64.29a1.1,1.1,0,0,0-1.17-.27.91.91,0,0,0-.6.8A1.75,1.75,0,0,0,10,15.79a1.07,1.07,0,0,0,1.22.29.94.94,0,0,0,.57-.84,1.81,1.81,0,0,0-.21-1.19Zm-.28,1.09a.5.5,0,0,1-.87.41,1.1,1.1,0,0,1-.14-.69.72.72,0,0,1,.22-.61.52.52,0,0,1,.71.16,1.79,1.79,0,0,1,.08.73Zm4.39-.27a.67.67,0,0,0-.25-1.06,5.36,5.36,0,0,0-1.26-.05v2.35c.44,0,1.17,0,1.31,0a.58.58,0,0,0,.56-.62c0-.51-.25-.51-.36-.62Zm-1-.71h.42c.27,0,.38.15.38.27s-.1.27-.38.27h-.42Zm.49,1.5h-.49v-.55h.49c.27,0,.38.16.38.27s-.09.28-.38.28Z" style="fill:#fff"/>
    </g>
</svg>