<?xml version="1.0" encoding="UTF-8"?>
<svg width="55" height="20" xmlns="http://www.w3.org/2000/svg" viewBox="0 0 55 20">
    <g id="Skrill">
        <g id="Skrill_Shape">
            <path d="M43.74,2l4.57-.88V19.8H43.74Zm6.68,0V19.8H55V1.09ZM37.21,19.8H41.8V6.12H37.22V19.8ZM7,8.05C6.38,8,5,7.92,5,6.63,5,5.08,7,5.08,7.68,5.08a15.17,15.17,0,0,1,4.1.78s.64.25,1.21.5h0V2.13l-.07,0a15.2,15.2,0,0,0-6-1c-5.16,0-7,3.21-7,6,0,1.58.64,5.31,6.55,5.73.5,0,1.83.11,1.83,1.44C8.38,15.3,7.29,16,5.46,16A13.82,13.82,0,0,1,.32,14.89v4.37A22.93,22.93,0,0,0,6.43,20c5,0,7.3-3,7.3-6C13.73,10.57,11.21,8.35,7,8.05ZM34.64,5.92c-4.23.14-6.38,2.16-6.38,6.17V19.8h4.61V13.52c0-2.4.3-3.43,3-3.54V6A5.47,5.47,0,0,0,34.64,5.92ZM22.22,6.1a17.08,17.08,0,0,1-2.61,4.76V1.09l-4.72,1V19.8h4.72V14.31a19.64,19.64,0,0,1,2,5.49h5.66a40.24,40.24,0,0,0-3-7A22.53,22.53,0,0,0,27.62,6.1ZM39.51,4.8a2.33,2.33,0,0,0,2.25-2.4,2.26,2.26,0,1,0-4.51,0h0A2.33,2.33,0,0,0,39.51,4.8Z" style="fill:#862165"/>
        </g>
    </g>
</svg>