<?xml version="1.0" encoding="UTF-8"?>
<svg width="65" height="20" xmlns="http://www.w3.org/2000/svg" viewBox="0 0 65 20">
    <g id="Visa">
        <g id="Shape">
            <polygon id="polygon9" points="28.17 19.71 22.9 19.71 26.2 0.35 31.46 0.35 28.17 19.71" style="fill:#00579f"/>
            <path id="path11" d="M47.25.82A13.55,13.55,0,0,0,42.53,0c-5.2,0-8.86,2.64-8.88,6.41,0,2.78,2.62,4.32,4.61,5.25S41,13.22,41,14.07C41,15.36,39.35,16,37.83,16a11,11,0,0,1-4.94-1l-.69-.31L31.46,19a16.82,16.82,0,0,0,5.87,1c5.53,0,9.12-2.6,9.17-6.61,0-2.21-1.39-3.89-4.42-5.27-1.85-.89-3-1.49-3-2.39s1-1.67,3-1.67a9.37,9.37,0,0,1,3.92.74l.48.2L47.25.82Z" style="fill:#00579f"/>
            <path id="path13" d="M54.25,12.85c.44-1.11,2.1-5.41,2.1-5.41s.44-1.14.7-1.86l.37,1.67s1,4.63,1.21,5.6ZM60.75.35H56.68A2.6,2.6,0,0,0,53.93,2L46.11,19.71h5.52s.91-2.39,1.11-2.9H59.5c.15.68.62,2.9.62,2.9H65L60.75.35Z" style="fill:#00579f"/>
            <path id="path15" d="M18.5.35l-5.15,13.2-.57-2.67A15,15,0,0,0,5.5,2.76l4.73,16.93h5.56L24.07.35Z" style="fill:#00579f"/>
            <path id="path17" d="M8.56.35H.09L0,.74C6.61,2.35,11,6.22,12.78,10.88L10.94,2C10.64.74,9.71.39,8.56.35Z" style="fill:#faa61a"/>
        </g>
    </g>
</svg>